<svg xmlns="http://www.w3.org/2000/svg" width="24" height="41" fill="none"><rect id="backgroundrect" width="100%" height="100%" x="0" y="0" fill="none" stroke="none" class="" style=""/>




<g class="currentLayer" style=""><title>Layer 1</title><g class="selected"><path d="M12.03508689428054,0 C5.39823793403875,0 0,6.4127774239040995 0,14.294736053284678 C0,25.015788093248194 12.03508689428054,40.8421030093848 12.03508689428054,40.8421030093848 C12.03508689428054,40.8421030093848 24.07017378856108,25.015788093248194 24.07017378856108,14.294736053284678 C24.07017378856108,6.4127774239040995 18.671935854522328,0 12.03508689428054,0 z" fill="white" id="svg_1" class=""/><path d="M12.03508689428054,1.41812857671475 C6.089578456822077,1.41812857671475 1.2536548848208895,7.162910715843133 1.2536548848208895,14.22382962444894 C1.2536548848208895,23.828105410249588 12.03508689428054,38.0058458559553 12.03508689428054,38.0058458559553 C12.03508689428054,38.0058458559553 22.81651890374019,23.828105410249588 22.81651890374019,14.22382962444894 C22.81651890374019,7.162910715843133 17.980595331739,1.41812857671475 12.03508689428054,1.41812857671475 z" fill="#00D385" id="svg_2" class=""/><path d="M12.03508689428054,22.256109882961287 C12.481388033276776,22.256109882961287 12.91768500629214,22.405807535519298 13.288766852199124,22.686285005421936 C13.659873771203806,22.966790837896117 13.949091953131983,23.365455143382167 14.119889894639982,23.831877632263648 C14.29068783614798,24.298328483716666 14.335368096242997,24.811577578201266 14.248314301041034,25.30673135204699 C14.161235432741373,25.80188512589271 13.946308839287681,26.256735685588197 13.630738831680567,26.613707010918834 C13.315143750975757,26.970706698821008 12.913046483218306,27.213830662012985 12.475320343634243,27.312305510380057 C12.03759420405018,27.410808721318663 11.583871428135804,27.36026661884455 11.171544336518215,27.16706078155293 C10.759192171802926,26.973854944261316 10.406764710582078,26.64666431904169 10.158816847462203,26.22689826033412 C9.91084391124463,25.807132201626555 9.778508101602938,25.313595094358288 9.778508101602938,24.808741321047837 C9.778508101602938,24.131726738524215 10.016251213960372,23.482450750961135 10.439434956880511,23.003747268605302 C10.862643772898348,22.52504378624947 11.436617125364744,22.256109882961287 12.03508689428054,22.256109882961287 z" fill="#D4D4EA" id="svg_3" class=""/><path d="M14.29166568695814,4.651461731624379 H9.778508101602938 V18.26549606808598 H14.29166568695814 V4.651461731624379 z" fill="#D4D4EA" id="svg_4" class=""/></g></g></svg>