<svg xmlns="http://www.w3.org/2000/svg" width="24" height="41" fill="none"><rect id="backgroundrect" width="100%" height="100%" x="0" y="0" fill="none" stroke="none" class="" style=""/>



<g class="currentLayer" style=""><title>Layer 1</title><g class="selected" id="svg_4"><path d="M11.933278977065356,0 C5.35257284117119,0 0,6.403553345254694 0,14.274174639577026 C0,24.979805619259796 11.933278977065356,40.78335611307722 11.933278977065356,40.78335611307722 C11.933278977065356,40.78335611307722 23.866557954130712,24.979805619259796 23.866557954130712,14.274174639577026 C23.866557954130712,6.403553345254694 18.513985112959524,0 11.933278977065356,0 z" fill="white" id="svg_1" class=""/><path d="M11.933278977065356,1.4160887539262923 C6.038065135409987,1.4160887539262923 1.243049893444308,7.152607652531545 1.243049893444308,14.203370201880713 C1.243049893444308,23.793831287846526 11.933278977065356,37.951178605224634 11.933278977065356,37.951178605224634 C11.933278977065356,37.951178605224634 22.623508060686405,23.793831287846526 22.623508060686405,14.203370201880713 C22.623508060686405,7.152607652531545 17.828492818720722,1.4160887539262923 11.933278977065356,1.4160887539262923 z" fill="#7C79A6" id="svg_2" class=""/><path d="M16.408308315460605,10.566854281797994 H15.662478379394017 V8.84205817951577 C15.662478379394017,7.715333001566777 15.26960003007201,6.634772316995779 14.570235299022375,5.838080784036847 C13.870895428970606,5.041360929302836 12.922373777278992,4.593791917736891 11.933328699061095,4.593791917736891 C10.944308481841064,4.593791917736891 9.99578683014945,5.041360929302836 9.296422099099814,5.838080784036847 C8.597082229048047,6.634772316995779 8.204179018728171,7.715333001566777 8.204179018728171,8.84205817951577 V10.566854281797994 H7.458349082661585 C7.05985214782121,10.572065488412441 6.679354575437907,10.75666681837427 6.399892098393757,11.080328063971667 C6.120429621349608,11.40401763134414 5.964700330698905,11.840484507079301 5.966689210528416,12.294482561588069 V20.926959605522747 C5.963382697811854,21.381665704408483 6.11858990750731,21.819293772921863 6.39827613353228,22.143719706446376 C6.6779374985593805,22.46817396174597 7.059205761876618,22.65291690058319 7.458349082661585,22.657420062820677 H16.408308315460605 C16.806581501320156,22.65291690058319 17.18710393470133,22.468966971448165 17.466616133741216,22.145730552476948 C17.746153193778973,21.822522455280815 17.901957067423286,21.386338797296435 17.899968187593775,20.93262396053845 V12.294482561588069 C17.901957067423286,11.840484507079301 17.746227776772578,11.40401763134414 17.46676529972843,11.080328063971667 C17.187302822684284,10.75666681837427 16.80680525030098,10.572065488412441 16.408308315460605,10.566854281797994 zM14.245401500867507,10.566854281797994 H9.621255897254681 V8.84205817951577 C9.621255897254681,8.14350159720393 9.864843954374027,7.473550007721402 10.298444618205274,6.979589928576831 C10.732045282036514,6.485629849432262 11.320132186625019,6.208133097212865 11.933328699061095,6.208133097212865 C12.54652521149717,6.208133097212865 13.134612116085673,6.485629849432262 13.568212779916918,6.979589928576831 C14.00181344374816,7.473550007721402 14.245401500867507,8.14350159720393 14.245401500867507,8.84205817951577 V10.566854281797994 z" fill="#00D385" id="svg_3" class=""/></g></g></svg>