<svg xmlns="http://www.w3.org/2000/svg" width="24" height="41" fill="none"><rect id="backgroundrect" width="100%" height="100%" x="0" y="0" fill="none" stroke="none" class="" style=""/>



<g class="currentLayer" style=""><title>Layer 1</title><g class="selected"><path d="M11.728814806216405,0 C5.260862141204984,0 0,6.3763610768318175 0,14.21356029510498 C0,24.873730516433717 11.728814806216405,40.610172271728516 11.728814806216405,40.610172271728516 C11.728814806216405,40.610172271728516 23.45762961243281,24.873730516433717 23.45762961243281,14.21356029510498 C23.45762961243281,6.3763610768318175 18.19676747122783,0 11.728814806216405,0 z" fill="white" id="svg_1" class=""/><path d="M11.728814806216405,1.4100754261016846 C5.934609246729577,1.4100754261016846 1.221751542314209,7.122234574222564 1.221751542314209,14.143056523799896 C1.221751542314209,23.692792347073556 11.728814806216405,37.790021419525154 11.728814806216405,37.790021419525154 C11.728814806216405,37.790021419525154 22.235878070118602,23.692792347073556 22.235878070118602,14.143056523799896 C22.235878070118602,7.122234574222564 17.523020365703236,1.4100754261016846 11.728814806216405,1.4100754261016846 z" fill="#00D385" id="svg_2" class=""/><path d="M9.969492585283945,13.10806116104126 L5.864407403108203,17.617482373714445 L9.969492585283945,22.129723737239836 V18.745542714595793 H17.185157194191664 V16.489422032833097 H9.969492585283945 V13.10806116104126 zM17.59322220932461,8.595819797515869 L13.488137027148866,4.083578433990478 V7.467759456634521 H6.272472418241149 V9.723880138397217 H13.488137027148866 V13.10806116104126 L17.59322220932461,8.595819797515869 z" fill="#D4D4EA" id="svg_3" class=""/></g></g></svg>