<svg xmlns="http://www.w3.org/2000/svg" width="24" height="41" fill="none"><rect id="backgroundrect" width="100%" height="100%" x="0" y="0" fill="none" stroke="none" class="" style=""/>



<g class="currentLayer" style=""><title>Layer 1</title><g class="selected"><path d="M11.99074061414772,0 C5.360860282908543,0 0,6.41763878069558 0,14.349999758077075 C0,25.11249957663488 11.99074061414772,40.999999308791644 11.99074061414772,40.999999308791644 C11.99074061414772,40.999999308791644 23.98148122829544,25.11249957663488 23.98148122829544,14.349999758077075 C23.98148122829544,6.41763878069558 18.6206209453869,0 11.99074061414772,0 z" fill="white" id="svg_1" class=""/><path d="M11.99074061414772,1.423611087110821 C6.067139885791457,1.423611087110821 1.2490354806403876,7.190602656553273 1.2490354806403876,14.278819203721534 C1.2490354806403876,23.92022529117957 11.99074061414772,38.15277713457 11.99074061414772,38.15277713457 C11.99074061414772,38.15277713457 22.732445747655053,23.92022529117957 22.732445747655053,14.278819203721534 C22.732445747655053,7.190602656553273 17.914341342503985,1.423611087110821 11.99074061414772,1.423611087110821 z" fill="#00D385" id="svg_2" class=""/><path d="M11.99074061414772,19.78249966649197 C10.804981270956574,19.78249966649197 9.64582638350307,19.38172467324853 8.659887736504773,18.63088371368454 C7.673949089506477,17.88001428189881 6.905517481106898,16.81278999433531 6.451742890990245,15.564169182052153 C5.997968300873592,14.315548369768994 5.879234988083916,12.941592837376598 6.11058133980813,11.61604008194597 C6.34190271082273,10.290515798737085 6.912911771152289,9.072929708152943 7.7513643085965676,8.117259585375447 C8.58984182675046,7.161617934819695 9.65811689263257,6.510799890236115 10.821093828656835,6.247118644681446 C11.984095745390713,5.983465871348523 13.189564868466363,6.118794341289277 14.285068907826435,6.635992249236638 C15.380572947186506,7.1531901571839995 16.31692488560338,8.029024170196319 16.975716159512345,9.152765817918114 C17.634482452711698,10.276507465639913 17.98611092122158,11.597647026700496 17.98611092122158,12.949166448360026 C17.98611092122158,14.761480306695587 17.35447367866174,16.499567082949188 16.230116919698872,17.781073311344606 C15.105760160736008,19.062551067518285 13.58081274242216,19.78249966649197 11.99074061414772,19.78249966649197 z" fill="#D4D4EA" id="svg_3" class=""/></g></g></svg>