<svg xmlns="http://www.w3.org/2000/svg" width="24" height="41" fill="none" style=""><rect id="backgroundrect" width="100%" height="100%" x="0" y="0" fill="none" stroke="none" class="" style=""/>



<g class="currentLayer" style=""><title>Layer 1</title><g class="selected"><path d="M11.939558670792167,0 C5.35538954546157,0 0,6.432885123848402 0,14.339558170807583 C0,25.094226798913272 11.939558670792167,40.97016620230738 11.939558670792167,40.97016620230738 C11.939558670792167,40.97016620230738 23.879117341584333,25.094226798913272 23.879117341584333,14.339558170807583 C23.879117341584333,6.432885123848402 18.523727796122763,0 11.939558670792167,0 z" fill="white" id="svg_1" class=""/><path d="M11.939558670792167,1.4225752153578952 C6.0412425688568865,1.4225752153578952 1.2437040282075174,7.185370509764114 1.2437040282075174,14.268429410039689 C1.2437040282075174,23.902820056051034 11.939558670792167,38.12501577159159 11.939558670792167,38.12501577159159 C11.939558670792167,38.12501577159159 22.635413313376816,23.902820056051034 22.635413313376816,14.268429410039689 C22.635413313376816,7.185370509764114 17.837874772727446,1.4225752153578952 11.939558670792167,1.4225752153578952 z" fill="#7C79A6" id="svg_2" class=""/><path d="M18.772468601764267,5.826868082105938 L9.188485360397138,16.598607612795924 L5.415087338815531,12.353643170167963 L3.24109269750879,14.786246788429963 L9.188485360397138,21.478040601473502 L20.936513610845346,8.25947170036794 L18.772468601764267,5.826868082105938 z" fill="#04004D" id="svg_3" class=""/></g></g></svg>