<svg xmlns="http://www.w3.org/2000/svg" width="24" height="41" fill="none"><rect id="backgroundrect" width="100%" height="100%" x="0" y="0" fill="none" stroke="none" class="" style=""/>



<g class="currentLayer" style=""><title>Layer 1</title><g class=""><path d="M11.815789269151196,3.18528918796801e-8 C5.299873811767193,3.18528918796801e-8 0,6.392118349551368 0,14.24868482672256 C0,24.935198422874816 11.815789269151196,40.710528017194804 11.815789269151196,40.710528017194804 C11.815789269151196,40.710528017194804 23.631578538302392,24.935198422874816 23.631578538302392,14.24868482672256 C23.631578538302392,6.392118349551368 18.3317047265352,3.18528918796801e-8 11.815789269151196,3.18528918796801e-8 z" fill="white" id="svg_1" class=""/><path d="M11.815789269151196,1.6962720312421382 C5.978617056596996,1.6962720312421382 1.2308113822032496,7.422547046780355 1.2308113822032496,14.460718826646216 C1.2308113822032496,24.034053923199277 11.815789269151196,38.16612001811093 11.815789269151196,38.16612001811093 C11.815789269151196,38.16612001811093 22.400767156099143,24.034053923199277 22.400767156099143,14.460718826646216 C22.400767156099143,7.422547046780355 17.652961481705393,1.6962720312421382 11.815789269151196,1.6962720312421382 z" fill="#00D385" id="svg_2" class=""/><path d="M13.558618186350998,8.404999517626617 L13.243530472506965,6.276206429593103 H6.154056911016248 V24.369746151878406 H7.729495480236406 V16.917486105761643 H12.140723474052855 L12.455811187896886,19.04630746499515 H17.969846180167444 V8.404999517626617 H13.558618186350998 z" fill="#7C79A6" id="svg_3" class=""/></g></g></svg>