<svg xmlns="http://www.w3.org/2000/svg" width="24" height="41" fill="none"><rect id="backgroundrect" width="100%" height="100%" x="0" y="0" fill="none" stroke="none" class="" style=""/>



<g class="currentLayer" style=""><title>Layer 1</title><g class="selected"><path d="M11.859647569854133,0 C5.3195460870616555,0 0,6.4127774239040995 0,14.294736053284678 C0,25.015788093248194 11.859647569854133,40.8421030093848 11.859647569854133,40.8421030093848 C11.859647569854133,40.8421030093848 23.719295139708265,25.015788093248194 23.719295139708265,14.294736053284678 C23.719295139708265,6.4127774239040995 18.39974905264661,0 11.859647569854133,0 z" fill="white" id="svg_1" class=""/><path d="M11.859647569854133,1.41812857671475 C6.000808717152464,1.41812857671475 1.2353799551931388,7.162910715843133 1.2353799551931388,14.22382962444894 C1.2353799551931388,23.828105410249588 11.859647569854133,38.0058458559553 11.859647569854133,38.0058458559553 C11.859647569854133,38.0058458559553 22.483915184515126,23.828105410249588 22.483915184515126,14.22382962444894 C22.483915184515126,7.162910715843133 17.718486422555802,1.41812857671475 11.859647569854133,1.41812857671475 z" fill="#00D385" id="svg_2" class=""/><path d="M7.261588084224374,5.712221907007013 V23.864267688955813 L19.121235654078507,14.79108105513484 L7.261588084224374,5.712221907007013 z" fill="#D4D4EA" id="svg_3" class=""/></g></g></svg>