<svg xmlns="http://www.w3.org/2000/svg" width="24" height="41" style=""><rect id="backgroundrect" width="100%" height="100%" x="0" y="0" fill="none" stroke="none" class="" style=""/><defs><style>.cls-1{fill:#5e4068;}.cls-2{fill:#a5a7df;}</style></defs><g class="currentLayer" style=""><title>Layer 1</title><g id="Layer_1-2" data-name="Layer 1" class="selected"><path class="cls-1" d="M11.815789453259413,0 C5.282642470297168,0 -1.1652912235149415e-7,6.269349010586739 -1.1652912235149415e-7,14.018420147895812 C-1.1652912235149415e-7,24.532235258817675 11.815789453259413,40.05262899398804 11.815789453259413,40.05262899398804 S23.631579023047948,24.532235258817675 23.631579023047948,14.018420147895812 C23.631579023047948,6.269349010586739 18.348936436221656,0 11.815789453259413,0 z" id="svg_1"/><path class="cls-2" d="M11.815789453259413,5.376509155929088 a2.0677631747129936,2.3364033579826358 0 1 1 -2.0677631747129936,2.3364033579826358 a2.0677631747129936,2.3364033579826358 0 0 1 2.0677631747129936,-2.3364033579826358 m0,10.01315724849701 c2.9244079185226624,0 6.006359697975839,1.624356620311737 6.006359697975839,2.3364033579826358 v1.2238303303718567 H5.809429755283574 v-1.2238303303718567 c0,-0.7120467376708987 3.0819517794531768,-2.3364033579826358 6.006359697975839,-2.3364033579826358 m0,-12.12704600095749 a3.938596523262845,4.450292110443115 0 1 0 3.938596523262845,4.450292110443115 A3.938596523262845,4.450292110443115 0 0 0 11.815789453259413,3.262620403468609 zm0,10.01315724849701 c-2.6290131792779485,0 -7.87719304652569,1.4908478569984438 -7.87719304652569,4.450292110443115 v3.3377190828323364 H19.692982499785103 v-3.3377190828323364 C19.692982499785103,14.766625508964063 14.444802632537364,13.275777651965617 11.815789453259413,13.275777651965617 z" id="svg_2"/></g></g></svg>