<svg xmlns="http://www.w3.org/2000/svg" width="24" height="41" fill="none"><rect id="backgroundrect" width="100%" height="100%" x="0" y="0" fill="none" stroke="none" class="" style=""/>




<g class="currentLayer" style=""><title>Layer 1</title><g class="selected"><path d="M11.859647569854133,0 C5.302250767688952,0 0,6.338001282811165 0,14.171928334236144 C0,24.800874584913256 11.859647569854133,40.49122381210327 11.859647569854133,40.49122381210327 C11.859647569854133,40.49122381210327 23.719295139708265,24.800874584913256 23.719295139708265,14.171928334236144 C23.719295139708265,6.338001282811165 18.417044372019316,0 11.859647569854133,0 z" fill="white" id="svg_1" class=""/><path d="M11.859647569854133,1.4059452712535858 C6.000808717152464,1.4059452712535858 1.2353799551931388,7.101373327291012 1.2353799551931388,14.101631070673465 C1.2353799551931388,23.623395420238378 11.859647569854133,37.6793332695961 11.859647569854133,37.6793332695961 C11.859647569854133,37.6793332695961 22.483915184515126,23.623395420238378 22.483915184515126,14.101631070673465 C22.483915184515126,7.101373327291012 17.718486422555802,1.4059452712535858 11.859647569854133,1.4059452712535858 z" fill="#00D385" id="svg_2" class=""/><path d="M11.859647569854133,20.80799001455307 C10.229835502566928,20.808580511566998 8.65027869185698,20.165979165887833 7.390141722361772,18.989709114146233 C6.130004752866563,17.813410943499207 5.267240099758778,16.176243912935256 4.94890739290461,14.357147564271093 C4.6305746860504415,12.538051215606927 4.876341174336566,10.649613646164536 5.644352184881036,9.013627609628438 C6.412338487826402,7.377641573092342 7.655056599953389,6.095363247898221 9.160688274144578,5.385276529198886 C10.666344655934871,4.675217929404974 12.341766951167807,4.581300785285235 13.901434144599145,5.119524754026533 C15.461101338030483,5.657748722767829 16.80853025515964,6.794849139252305 17.714088469915314,8.337002388384938 C18.619646684670986,9.87915563751757 19.027297362285623,11.73098239209652 18.867587441678253,13.576876057630777 C18.707877521070884,15.422769723165034 17.99069004188306,17.148511305817962 16.838228789282486,18.460061411559582 C16.185379898161116,19.20563418890536 15.409388333106099,19.796918532183767 14.55497484849542,20.199862446925042 C13.700536656285635,20.602806361666325 12.784527127109028,20.8094803165406 11.859647569854133,20.80799001455307 zM11.859647569854133,7.310915410518646 C11.543489131721104,7.310099962261319 11.228071921561193,7.3459234477728605 10.918288043996961,7.4177672511339185 C9.710802968192084,7.693669951164723 8.64279228932851,8.487438532409072 7.935314896588506,9.634689873751997 C7.227837503848496,10.78196933400035 6.935077162066827,12.19491621270478 7.1176416118452694,13.581037655633688 C7.300206061623711,14.967187217468023 7.944086094270375,16.22033435664177 8.916033627818129,17.081138408419488 C9.887981161365884,17.94194246019721 11.113552199714787,18.344436472451687 12.339049115266382,18.20533224731386 C13.564546030817976,18.066228022176027 14.696104654576684,17.396182624801995 15.499521654636988,16.333850377842786 C16.302938654697297,15.271546249788999 16.71664269409237,13.898331384450197 16.655046649526444,12.498487915673852 C16.593450604960516,11.098616327992081 16.06124892026331,9.779305404353142 15.168588072239851,8.813674073150754 C14.275951931815497,7.848014623042941 13.091222554785277,7.309987486639619 11.859647569854133,7.310915410518646 z" fill="#7C79A6" id="svg_3" class=""/><path d="M11.859672277453237,16.162746838331223 C11.173616373136278,16.160188017937543 10.509574939620864,15.886928495016694 9.980733488401784,15.389561295858025 C9.451892037182706,14.89222221560478 9.090963429473478,14.201537541648745 8.95946958704272,13.435241131004691 C8.828000452211066,12.668944720360638 8.93407017516395,11.87447316648066 9.25964220855555,11.187218998986483 C9.585214241947149,10.499964831492305 10.110127184908713,9.96247195429206 10.744914821085157,9.666351761260628 C11.379727164860702,9.370231568229197 12.08510441167688,9.333789466798306 12.740844091893399,9.563267853972317 C13.396583772109917,9.792746241146325 13.962116007998231,10.273916950780153 14.341056455454176,10.924813373559715 C14.719972195311016,11.575681677433847 14.888848635185918,12.355953184074163 14.818876714523777,13.132653589725495 C14.748904793861639,13.909353995376826 14.444433050104736,14.6343999717623 13.957347441371185,15.184208929538727 C13.399622806799691,15.813763103100658 12.645176268163242,16.165699323400855 11.859672277453237,16.162746838331223 z" fill="#7C79A6" id="svg_4" class=""/></g></g></svg>