<svg xmlns="http://www.w3.org/2000/svg" width="24" height="41" fill="none"><rect id="backgroundrect" width="100%" height="100%" x="0" y="0" fill="none" stroke="none" class="" style=""/>



<g class="currentLayer" style=""><title>Layer 1</title><g class="selected"><path d="M12.12136698479911,0 C5.4369381496401,0 0,6.443484299928693 0,14.363184817178512 C0,25.135573430062397 12.12136698479911,41.03767090622432 12.12136698479911,41.03767090622432 C12.12136698479911,41.03767090622432 24.24273396959822,25.135573430062397 24.24273396959822,14.363184817178512 C24.24273396959822,6.443484299928693 18.80579581995812,0 12.12136698479911,0 z" fill="white" id="svg_1" class=""/><path d="M12.12136698479911,1.4249191286883445 C6.133234924373153,1.4249191286883445 1.2626423942499072,7.197209522239681 1.2626423942499072,14.291938860744095 C1.2626423942499072,23.94220365978591 12.12136698479911,38.18783264884763 12.12136698479911,38.18783264884763 C12.12136698479911,38.18783264884763 22.98009157534831,23.94220365978591 22.98009157534831,14.291938860744095 C22.98009157534831,7.197209522239681 18.109499045225064,1.4249191286883445 12.12136698479911,1.4249191286883445 z" fill="#00D385" id="svg_2" class=""/><path d="M18.406800823375146,9.324670778136525 H16.61132333875178 V7.2984357771417 H7.631410630846439 V9.324670778136525 H5.835933146223072 C5.360144239221822,9.326181192412935 4.9042293235060646,9.540118550394203 4.567810883982118,9.9198025014245 C4.231392444458174,10.299457954072222 4.041794062537607,10.81396775305901 4.040455661599703,11.350905779131352 V12.365448198757452 C4.041112235644713,13.600910080095396 4.442379988537334,14.793367902129525 5.168576135166226,15.717883931205094 C5.894747028947232,16.64242845866324 6.895643654869133,17.235052324284723 7.982425216447913,17.384013369997803 C8.267832903244162,18.140673925713887 8.711803221910314,18.807792563383195 9.276179119292138,19.328030537267313 C9.840529763826078,19.848268511151428 10.50839183184062,20.20606570436507 11.222365600093175,20.370643863728574 V23.505465946842932 H7.631410630846439 V25.531700947837756 H16.61132333875178 V23.511165623357684 H13.020368369505043 V20.376343540243326 C13.734847194715295,20.21119541322835 14.403062802600232,19.85254326853749 14.96746395282994,19.331279352880717 C15.53186510305965,18.81001543722395 15.975557640399064,18.141728365869117 16.260308753150305,17.384013369997803 C17.347090314729087,17.235052324284723 18.347986940650987,16.64242845866324 19.074157834431997,15.717883931205094 C19.800353981060884,14.793367902129525 20.201621733953505,13.600910080095396 20.202278307998515,12.365448198757452 V11.350905779131352 C20.200939907060608,10.81396775305901 20.011341525140043,10.299457954072222 19.6749230856161,9.9198025014245 C19.33850464609215,9.540118550394203 18.8825897303764,9.326181192412935 18.406800823375146,9.324670778136525 zM5.835933146223072,12.365448198757452 V11.350905779131352 H7.631410630846439 V15.220986132648894 C7.1092574951283325,15.011124043375677 6.656928483812246,14.625141949796578 6.3357375115629555,14.115362882317035 C6.014571792161547,13.605555316454922 5.840074613276212,12.99663037600124 5.835933146223072,12.371147875272205 V12.365448198757452 zM18.406800823375146,12.371147875272205 C18.402659356322005,12.99663037600124 18.22816217743667,13.605555316454922 17.906996458035263,14.115362882317035 C17.585805485785976,14.625141949796578 17.133476474469887,15.011124043375677 16.61132333875178,15.220986132648894 V11.350905779131352 H18.406800823375146 V12.371147875272205 z" fill="#04004D" id="svg_3" class=""/></g></g></svg>