<svg width="30" height="29" viewBox="0 0 30 29" fill="none" xmlns="http://www.w3.org/2000/svg">
<path d="M29.7143 14.2636L26.4187 10.4727L26.8779 5.45455L22.0021 4.33636L19.4494 0L14.8571 1.99091L10.2649 0L7.71221 4.33636L2.83636 5.44091L3.29558 10.4591L0 14.2636L3.29558 18.0545L2.83636 23.0864L7.71221 24.2045L10.2649 28.5409L14.8571 26.5364L19.4494 28.5273L22.0021 24.1909L26.8779 23.0727L26.4187 18.0545L29.7143 14.2636ZM23.6229 17.1409L23.974 20.9455L20.2732 21.7909L18.3418 25.0773L14.8571 23.5636L11.3725 25.0773L9.44104 21.7909L5.74026 20.9455L6.09143 17.1273L3.59273 14.2636L6.09143 11.3727L5.74026 7.58182L9.44104 6.75L11.3725 3.46364L14.8571 4.96364L18.3418 3.45L20.2732 6.73636L23.974 7.58182L23.6229 11.3864L26.1216 14.2636L23.6229 17.1409ZM13.5065 18.3545H16.2078V21.0818H13.5065V18.3545ZM13.5065 7.44545H16.2078V15.6273H13.5065V7.44545Z" fill="#04004D"/>
</svg>
