<svg width="32" height="32" viewBox="0 0 32 32" fill="none" xmlns="http://www.w3.org/2000/svg">
<path d="M6.97098 19.5321C9.16409 19.5321 10.942 17.7633 10.942 15.5815C10.942 13.3996 9.16409 11.6309 6.97098 11.6309C4.77787 11.6309 3 13.3996 3 15.5815C3 17.7633 4.77787 19.5321 6.97098 19.5321Z" fill="#5A62B3"/>
<path d="M24.761 31.9999C26.9541 31.9999 28.732 30.2311 28.732 28.0493C28.732 25.8674 26.9541 24.0986 24.761 24.0986C22.5679 24.0986 20.79 25.8674 20.79 28.0493C20.79 30.2311 22.5679 31.9999 24.761 31.9999Z" fill="#5A62B3"/>
<path d="M24.761 7.90123C26.9541 7.90123 28.732 6.13248 28.732 3.95062C28.732 1.76875 26.9541 0 24.761 0C22.5679 0 20.79 1.76875 20.79 3.95062C20.79 6.13248 22.5679 7.90123 24.761 7.90123Z" fill="#5A62B3"/>
<path d="M6.52637 15.5811H18.6299" stroke="#5A62B3" stroke-width="0.75" stroke-miterlimit="10"/>
<path d="M18.6294 3.53955V27.6225" stroke="#5A62B3" stroke-miterlimit="10" stroke-linecap="square"/>
<path d="M18.6294 3.53955H27.3338" stroke="#5A62B3" stroke-miterlimit="10"/>
<path d="M18.6294 28.2075H27.0955" stroke="#5A62B3" stroke-miterlimit="10" stroke-linecap="square"/>
</svg>
