<svg width="32" height="32" viewBox="0 0 32 32" fill="none" xmlns="http://www.w3.org/2000/svg">
<path d="M15.4923 4L21.7538 16L28 28H15.4923H3L9.24617 16L15.4923 4Z" stroke="#5A62B3" stroke-width="0.75" stroke-miterlimit="10"/>
<path d="M3.84246 31.6455C5.96459 31.6455 7.68492 29.934 7.68492 27.8228C7.68492 25.7115 5.96459 24 3.84246 24C1.72033 24 0 25.7115 0 27.8228C0 29.934 1.72033 31.6455 3.84246 31.6455Z" fill="#5A62B3"/>
<path d="M28.1574 31.6455C30.2795 31.6455 31.9999 29.934 31.9999 27.8228C31.9999 25.7115 30.2795 24 28.1574 24C26.0353 24 24.3149 25.7115 24.3149 27.8228C24.3149 29.934 26.0353 31.6455 28.1574 31.6455Z" fill="#5A62B3"/>
<path d="M15.6003 7.64551C17.7224 7.64551 19.4427 5.934 19.4427 3.82275C19.4427 1.71151 17.7224 0 15.6003 0C13.4781 0 11.7578 1.71151 11.7578 3.82275C11.7578 5.934 13.4781 7.64551 15.6003 7.64551Z" fill="#5A62B3"/>
</svg>
