<svg width="32" height="32" viewBox="0 0 32 32" fill="none" xmlns="http://www.w3.org/2000/svg">
<path d="M5.46526 13.4645C6.31864 13.4616 7.1537 13.7108 7.86452 14.1806C8.57534 14.6504 9.1299 15.3197 9.45787 16.1035C9.78584 16.8873 9.87244 17.7503 9.70669 18.5832C9.54094 19.416 9.13031 20.1812 8.52687 20.7815C7.92343 21.3818 7.15437 21.7904 6.31723 21.9553C5.48009 22.1202 4.61258 22.034 3.82473 21.7077C3.03687 21.3814 2.36417 20.8297 1.89193 20.1225C1.41969 19.4154 1.16919 18.5846 1.1722 17.7356C1.1722 16.6028 1.6245 15.5165 2.42961 14.7155C3.23471 13.9145 4.32667 13.4645 5.46526 13.4645V13.4645ZM5.46526 12.3286C4.38605 12.3256 3.33024 12.6415 2.43165 13.2361C1.53307 13.8307 0.832164 14.6774 0.417777 15.6688C0.00338949 16.6602 -0.105822 17.7516 0.103984 18.8048C0.313789 19.858 0.833166 20.8255 1.59629 21.5847C2.3594 22.3439 3.33191 22.8606 4.39053 23.0694C5.44915 23.2781 6.54623 23.1694 7.54272 22.7572C8.5392 22.3449 9.39023 21.6476 9.98793 20.7536C10.5856 19.8597 10.9031 18.8093 10.9001 17.7356C10.9001 16.3016 10.3275 14.9263 9.30826 13.9123C8.28903 12.8983 6.90666 12.3286 5.46526 12.3286V12.3286Z" fill="#5A62B3"/>
<path d="M26.4348 22.1359C27.2839 22.1359 28.1139 22.3864 28.8199 22.8557C29.5259 23.325 30.0762 23.9921 30.4011 24.7725C30.726 25.5529 30.811 26.4117 30.6454 27.2402C30.4797 28.0687 30.0709 28.8297 29.4705 29.427C28.8701 30.0244 28.1051 30.4311 27.2724 30.5959C26.4396 30.7607 25.5764 30.6761 24.7919 30.3529C24.0075 30.0296 23.337 29.4822 22.8653 28.7798C22.3936 28.0774 22.1418 27.2517 22.1418 26.407C22.1458 25.2754 22.5994 24.1914 23.4036 23.3913C24.2078 22.5912 25.2975 22.1399 26.4348 22.1359V22.1359ZM26.4348 21C25.3599 21 24.3092 21.3171 23.4154 21.9112C22.5216 22.5054 21.8251 23.3498 21.4137 24.3378C21.0024 25.3258 20.8947 26.413 21.1044 27.4618C21.3141 28.5106 21.8318 29.4741 22.5918 30.2303C23.3519 30.9864 24.3203 31.5014 25.3745 31.71C26.4288 31.9186 27.5216 31.8116 28.5146 31.4023C29.5077 30.9931 30.3565 30.3001 30.9537 29.4109C31.5509 28.5217 31.8697 27.4764 31.8697 26.407C31.8697 24.9729 31.2971 23.5977 30.2778 22.5837C29.2586 21.5697 27.8762 21 26.4348 21Z" fill="#5A62B3"/>
<path d="M19.6077 1.13592C20.4541 1.14786 21.278 1.40847 21.976 1.88498C22.6739 2.36149 23.2147 3.03263 23.5303 3.81404C23.8459 4.59545 23.9223 5.45224 23.7498 6.27671C23.5773 7.10118 23.1637 7.85653 22.561 8.4478C21.9582 9.03907 21.1932 9.43987 20.3622 9.59982C19.5311 9.75977 18.6711 9.67173 17.8901 9.34676C17.1092 9.02179 16.4423 8.4744 15.9732 7.7734C15.5041 7.07241 15.2538 6.24909 15.2537 5.40696C15.2557 4.84152 15.3701 4.28206 15.5904 3.7608C15.8106 3.23955 16.1324 2.7668 16.5371 2.3698C16.9418 1.9728 17.4215 1.65939 17.9485 1.44762C18.4755 1.23585 19.0394 1.12992 19.6077 1.13592V1.13592ZM19.6077 0C18.5328 0 17.482 0.317112 16.5883 0.911236C15.6945 1.50536 14.9979 2.34981 14.5866 3.3378C14.1752 4.3258 14.0676 5.41295 14.2773 6.4618C14.487 7.51065 15.0046 8.47407 15.7647 9.23025C16.5248 9.98643 17.4931 10.5014 18.5474 10.71C19.6017 10.9186 20.6944 10.8116 21.6875 10.4023C22.6806 9.99309 23.5294 9.30007 24.1266 8.4109C24.7238 7.52173 25.0425 6.47635 25.0425 5.40696C25.0425 3.97294 24.4699 2.59766 23.4507 1.58366C22.4315 0.56966 21.0491 0 19.6077 0V0Z" fill="#5A62B3"/>
</svg>
