<svg width="31" height="30" viewBox="0 0 31 30" fill="none" xmlns="http://www.w3.org/2000/svg">
<path d="M14.2762 24H17.2476V21H14.2762V24ZM15.7619 0C7.56079 0 0.904785 6.72 0.904785 15C0.904785 23.28 7.56079 30 15.7619 30C23.9631 30 30.6191 23.28 30.6191 15C30.6191 6.72 23.9631 0 15.7619 0ZM15.7619 27C9.20993 27 3.87621 21.615 3.87621 15C3.87621 8.385 9.20993 3 15.7619 3C22.3139 3 27.6476 8.385 27.6476 15C27.6476 21.615 22.3139 27 15.7619 27ZM15.7619 6C12.4785 6 9.81907 8.685 9.81907 12H12.7905C12.7905 10.35 14.1276 9 15.7619 9C17.3962 9 18.7334 10.35 18.7334 12C18.7334 15 14.2762 14.625 14.2762 19.5H17.2476C17.2476 16.125 21.7048 15.75 21.7048 12C21.7048 8.685 19.0454 6 15.7619 6Z" fill="#04004D"/>
</svg>
