<svg width="30" height="30" viewBox="0 0 30 30" fill="none" xmlns="http://www.w3.org/2000/svg">
<path d="M3 3H27V21H4.755L3 22.755V3ZM3 0C1.35 0 0.015 1.35 0.015 3L0 30L6 24H27C28.65 24 30 22.65 30 21V3C30 1.35 28.65 0 27 0H3ZM6 16.5C6 15.6716 6.67157 15 7.5 15H16.5C17.3284 15 18 15.6716 18 16.5C18 17.3284 17.3284 18 16.5 18H7.5C6.67157 18 6 17.3284 6 16.5ZM6 12C6 11.1716 6.67157 10.5 7.5 10.5H22.5C23.3284 10.5 24 11.1716 24 12C24 12.8284 23.3284 13.5 22.5 13.5H7.5C6.67157 13.5 6 12.8284 6 12ZM6 7.5C6 6.67157 6.67157 6 7.5 6H22.5C23.3284 6 24 6.67157 24 7.5C24 8.32843 23.3284 9 22.5 9H7.5C6.67157 9 6 8.32843 6 7.5Z" fill="#04004D"/>
</svg>
