<svg width="32" height="32" viewBox="0 0 32 32" fill="none" xmlns="http://www.w3.org/2000/svg">
<path d="M3.73563 20.2555C5.79876 20.2555 7.47126 18.5754 7.47126 16.503C7.47126 14.4305 5.79876 12.7505 3.73563 12.7505C1.6725 12.7505 0 14.4305 0 16.503C0 18.5754 1.6725 20.2555 3.73563 20.2555Z" fill="#5A62B3"/>
<path d="M16.0003 20.2555C18.0634 20.2555 19.7359 18.5754 19.7359 16.503C19.7359 14.4305 18.0634 12.7505 16.0003 12.7505C13.9371 12.7505 12.2646 14.4305 12.2646 16.503C12.2646 18.5754 13.9371 20.2555 16.0003 20.2555Z" fill="#5A62B3"/>
<path d="M28.2644 19.505C30.3276 19.505 32.0001 17.825 32.0001 15.7525C32.0001 13.6801 30.3276 12 28.2644 12C26.2013 12 24.5288 13.6801 24.5288 15.7525C24.5288 17.825 26.2013 19.505 28.2644 19.505Z" fill="#5A62B3"/>
<path d="M27.0908 16.1729H4.31836" stroke="#5A62B3" stroke-miterlimit="10" stroke-linecap="square"/>
</svg>
