<svg width="30" height="30" viewBox="0 0 30 30" fill="none" xmlns="http://www.w3.org/2000/svg">
<path d="M12.9883 19.8072C12.3408 20.4571 12.3419 21.5085 12.9905 22.1572C13.6401 22.8068 14.6932 22.8068 15.3428 22.1572L21.0858 16.4142C21.8668 15.6332 21.8668 14.3668 21.0858 13.5858L15.3428 7.8428C14.6932 7.19324 13.6401 7.19324 12.9905 7.8428C12.3419 8.49148 12.3408 9.54287 12.9883 10.1928L13.0768 10.2817C14.2005 11.4097 13.4015 13.3333 11.8093 13.3333H1.66667C0.746193 13.3333 0 14.0795 0 15C0 15.9205 0.746192 16.6667 1.66667 16.6667H11.8093C13.4015 16.6667 14.2005 18.5903 13.0768 19.7183L12.9883 19.8072ZM26.6667 0H3.33333C1.48333 0 0 1.5 0 3.33333V8.33333C0 9.25381 0.746192 10 1.66667 10C2.58714 10 3.33333 9.25381 3.33333 8.33333V5.33333C3.33333 4.22876 4.22876 3.33333 5.33333 3.33333H24.6667C25.7712 3.33333 26.6667 4.22876 26.6667 5.33333V24.6667C26.6667 25.7712 25.7712 26.6667 24.6667 26.6667H5.33333C4.22877 26.6667 3.33333 25.7712 3.33333 24.6667V21.6667C3.33333 20.7462 2.58714 20 1.66667 20C0.746192 20 0 20.7462 0 21.6667V26.6667C0 28.5 1.48333 30 3.33333 30H26.6667C28.5 30 30 28.5 30 26.6667V3.33333C30 1.5 28.5 0 26.6667 0Z" fill="#04004D"/>
</svg>
