<svg width="48" height="48" viewBox="0 0 48 48" fill="none" xmlns="http://www.w3.org/2000/svg">
<rect width="48" height="48" fill="#FAFAFA"/>
<path d="M21.1392 36.0361H38.0001V8H9.89868V24.8217" stroke="#04004D" stroke-width="2" stroke-linecap="square"/>
<path d="M28.0547 20.9934V13.8888L24.2962 10.3364L20.5378 13.8888V16.257H13.021V32.8345H35.5715V20.9934H28.0547ZM18.0322 30.4663H15.5266V28.0981H18.0322V30.4663ZM18.0322 25.7299H15.5266V23.3616H18.0322V25.7299ZM18.0322 20.9934H15.5266V18.6252H18.0322V20.9934ZM25.5491 30.4663H23.0434V28.0981H25.5491V30.4663ZM25.5491 25.7299H23.0434V23.3616H25.5491V25.7299ZM25.5491 20.9934H23.0434V18.6252H25.5491V20.9934ZM25.5491 16.257H23.0434V13.8888H25.5491V16.257ZM33.0659 30.4663H30.5603V28.0981H33.0659V30.4663ZM33.0659 25.7299H30.5603V23.3616H33.0659V25.7299Z" fill="#04004D"/>
<ellipse cx="14.0186" cy="32" rx="8.01863" ry="8" fill="#FAFAFA"/>
<path d="M14.0186 31.2039C13.5761 31.2039 13.2206 31.5585 13.2206 32.0001C13.2206 32.4416 13.5761 32.7962 14.0186 32.7962C14.4612 32.7962 14.8167 32.4416 14.8167 32.0001C14.8167 31.5585 14.4612 31.2039 14.0186 31.2039ZM14.0186 24.762C10.0139 24.762 6.76367 28.0046 6.76367 32.0001C6.76367 35.9955 10.0139 39.2382 14.0186 39.2382C18.0234 39.2382 21.2736 35.9955 21.2736 32.0001C21.2736 28.0046 18.0234 24.762 14.0186 24.762ZM15.6075 33.5852L9.66565 36.3429L12.4298 30.4149L18.3716 27.6572L15.6075 33.5852Z" fill="#04004D"/>
</svg>
