<svg xmlns="http://www.w3.org/2000/svg" xmlns:xlink="http://www.w3.org/1999/xlink" viewBox="0 0 480 240"><defs><style>.cls-1{fill:none;}.cls-2{fill:#f6f7fb;}.cls-3{fill:#efe7ee;}.cls-4{fill:#5e4068;}.cls-5{clip-path:url(#clip-path);}.cls-6{fill:#a5a7df;}.cls-7{fill:#fff;}.cls-8{opacity:0.4;}.cls-9{opacity:0.05;}.cls-10{opacity:0.5;}.cls-11{opacity:0.1;}.cls-12{opacity:0.6;}.cls-13{opacity:0.15;}.cls-14{opacity:0.7;}.cls-15{opacity:0.2;}.cls-16{opacity:0.8;}.cls-17{opacity:0.3;}.cls-18{opacity:0.9;}</style><clipPath id="clip-path"><rect class="cls-1" x="145.77" y="25.77" width="188.47" height="188.47" rx="16"/></clipPath></defs><g id="Layer_2" data-name="Layer 2"><g id="Layer_1-2" data-name="Layer 1"><rect class="cls-2" width="480" height="240"/><rect class="cls-3" x="145.77" y="25.77" width="188.47" height="188.47" rx="16"/><circle class="cls-4" cx="232.16" cy="86.49" r="16.77"/><g class="cls-5"><path class="cls-6" d="M233.08,148.27l-41.15-41.15-49.57,49.56v32.74a27.8,27.8,0,0,0,27.74,27.74H310.39a27.81,27.81,0,0,0,27.75-27.74V136.11L291.69,89.35Z"/></g><circle class="cls-7" cx="333.88" cy="182.01" r="43.12"/><path class="cls-4" d="M333.88,147.36a2,2,0,0,1,2,2v13.05a2,2,0,0,1-4.06,0V149.39A2,2,0,0,1,333.88,147.36Z"/><g class="cls-8"><path class="cls-4" d="M333.88,199.55a2,2,0,0,1,2,2v13a2,2,0,0,1-4.06,0v-13A2,2,0,0,1,333.88,199.55Z"/></g><g class="cls-9"><path class="cls-4" d="M341.91,164.05l6.53-11.3a2,2,0,1,1,3.51,2l-6.52,11.3a2,2,0,0,1-1.76,1,1.94,1.94,0,0,1-1-.27A2,2,0,0,1,341.91,164.05Z"/></g><g class="cls-10"><path class="cls-4" d="M315.82,209.25l6.52-11.3a2,2,0,1,1,3.52,2l-6.53,11.3a2,2,0,0,1-1.76,1,2.07,2.07,0,0,1-1-.27A2,2,0,0,1,315.82,209.25Z"/></g><g class="cls-11"><path class="cls-4" d="M349.82,170.47l11.3-6.53a2,2,0,0,1,2,3.52L351.85,174a2,2,0,0,1-1,.28,2,2,0,0,1-1-3.79Z"/></g><g class="cls-12"><path class="cls-4" d="M304.62,196.56l11.3-6.52a2,2,0,0,1,2,3.52l-11.3,6.52a2.07,2.07,0,0,1-1,.27,2,2,0,0,1-1-3.79Z"/></g><g class="cls-13"><path class="cls-4" d="M353.46,180h13a2,2,0,0,1,0,4.06h-13a2,2,0,1,1,0-4.06Z"/></g><g class="cls-14"><path class="cls-4" d="M301.27,180h13a2,2,0,0,1,0,4.06h-13a2,2,0,1,1,0-4.06Z"/></g><g class="cls-15"><path class="cls-4" d="M349.08,190.78a2,2,0,0,1,2.77-.74l11.3,6.52a2,2,0,0,1-1,3.79,2,2,0,0,1-1-.27l-11.3-6.52A2,2,0,0,1,349.08,190.78Z"/></g><g class="cls-16"><path class="cls-4" d="M303.88,164.69a2,2,0,0,1,2.77-.75l11.3,6.53a2,2,0,0,1-1,3.79,2,2,0,0,1-1-.28l-11.3-6.52A2,2,0,0,1,303.88,164.69Z"/></g><g class="cls-17"><path class="cls-4" d="M342.66,197.2a2,2,0,0,1,2.77.75l6.52,11.3a2,2,0,0,1-.74,2.77,2.07,2.07,0,0,1-1,.27,2,2,0,0,1-1.76-1L341.91,200A2,2,0,0,1,342.66,197.2Z"/></g><g class="cls-18"><path class="cls-4" d="M316.56,152a2,2,0,0,1,2.77.75l6.53,11.3a2,2,0,0,1-.75,2.77,2,2,0,0,1-1,.27,2,2,0,0,1-1.76-1l-6.52-11.3A2,2,0,0,1,316.56,152Z"/></g></g></g></svg>