<svg width="96" height="144" viewBox="0 0 96 144" fill="none" xmlns="http://www.w3.org/2000/svg">
<path d="M48 0C21.53 0 0 22.61 0 50.4C0 88.2 48 144 48 144C48 144 96 88.2 96 50.4C96 22.61 74.47 0 48 0Z" fill="white"/>
<path d="M48 6C24.2873 6 5 26.2548 5 51.15C5 85.0125 48 135 48 135C48 135 91 85.0125 91 51.15C91 26.2548 71.7127 6 48 6Z" fill="#00D385"/>
<path d="M67.316 31C63.0335 31 58.9889 32.6654 56.1041 35.5502L35.197 54.1078C33.2937 56.0112 30.7658 57.052 28.0595 57.052C22.4981 57.052 17.9777 52.5613 17.9777 47C17.9777 41.4387 22.4981 36.948 28.0595 36.948C30.7658 36.948 33.2937 37.9888 35.316 40.0112L38.6766 42.9851L43.1673 39L39.4201 35.6989C36.3866 32.6654 32.342 31 28.0595 31C19.197 31 12 38.197 12 47C12 55.803 19.197 63 28.0595 63C32.342 63 36.3866 61.3346 39.2714 58.4498L52.1784 47L60.1784 39.8922C62.0818 37.9888 64.6097 36.948 67.316 36.948C72.8773 36.948 77.3978 41.4387 77.3978 47C77.3978 52.5613 72.8773 57.052 67.316 57.052C64.6394 57.052 62.0818 56.0112 60.0595 53.9888L56.6692 50.9851L52.1784 54.9703L55.9554 58.3011C58.9889 61.3048 63.0037 62.9703 67.316 62.9703C76.1784 62.9703 83.3755 55.803 83.3755 46.9703C83.3755 38.1375 76.1784 31 67.316 31V31Z" fill="white"/></svg>
