<svg width="96" height="144" viewBox="0 0 96 144" fill="none" xmlns="http://www.w3.org/2000/svg">
<path d="M48 0C21.46 0 0 22.54 0 50.4C0 88.2 48 144 48 144C48 144 96 88.2 96 50.4C96 22.54 74.54 0 48 0Z" fill="white"/>
<path d="M48 6C24.2873 6 5 26.2548 5 51.15C5 85.0125 48 135 48 135C48 135 91 85.0125 91 51.15C91 26.2548 71.7127 6 48 6Z" fill="#00D385"/>
<path d="M48 69.48C43.2533 69.48 38.6131 68.0724 34.6663 65.4353C30.7195 62.7981 27.6434 59.0498 25.8269 54.6644C24.0104 50.279 23.5351 45.4534 24.4612 40.7978C25.3872 36.1423 27.673 31.8659 31.0294 28.5094C34.3859 25.153 38.6623 22.8672 43.3178 21.9411C47.9734 21.0151 52.799 21.4904 57.1844 23.3069C61.5698 25.1234 65.3181 28.1995 67.9553 32.1463C70.5924 36.0931 72 40.7332 72 45.48C72 51.8452 69.4715 57.9497 64.9706 62.4506C60.4697 66.9514 54.3652 69.48 48 69.48Z" fill="white"/>
</svg>
