<svg xmlns="http://www.w3.org/2000/svg" width="24" height="41"><g class="currentLayer" style=""><title>Layer 1</title><g class="selected" id="svg_3"><path d="M11.989465025276843,0 C5.360289988384189,0 0,6.409497433802386 0,14.3317955041544 C0,25.080642132270203 11.989465025276843,40.94798715472686 11.989465025276843,40.94798715472686 C11.989465025276843,40.94798715472686 23.978930050553686,25.080642132270203 23.978930050553686,14.3317955041544 C23.978930050553686,6.409497433802386 18.6186400621695,0 11.989465025276843,0 z" fill="#00D385" id="svg_1" class=""/><path d="M11.989465025276843,19.75740380215571 C10.803831824537644,19.75740380215571 9.644800249323277,19.357137227718255 8.658966487619887,18.607248776845125 C7.6731327259165,17.857331889869812 6.904782864161206,16.79146147145271 6.451056547110885,15.54442464597813 C5.997330230060565,14.297387820503555 5.878609548258187,12.925175273185152 6.109931289089623,11.601304099591081 C6.3412280518689235,10.277461362099197 6.91217636759346,9.061419888012573 7.750539709485943,8.10696211797896 C8.588928029430562,7.152532784047533 9.657089450974185,6.502540360170626 10.819942668165359,6.239193617781788 C11.982820863408667,5.975875311495142 13.188161747283168,6.111032105207932 14.28354924565502,6.627573901503496 C15.378936744026879,7.144115697799061 16.31518907224032,8.018838637289722 16.973910263170737,9.141154718555526 C17.63260647604902,10.263470799821333 17.984197537915264,11.582934377575834 17.984197537915264,12.932739276367899 C17.984197537915264,14.74275405301559 17.352627489656673,16.47863591125191 16.228390341067744,17.758516434756842 C15.104153192478815,19.038368522159587 13.579367999837098,19.75740380215571 11.989465025276843,19.75740380215571 z" fill="#D4D4EA" id="svg_2" class=""/></g></g></svg>