<svg width="30" height="31" viewBox="0 0 30 31" fill="none" xmlns="http://www.w3.org/2000/svg"><path d="M26.4611 16.932C26.5227 16.4386 26.569 15.9451 26.569 15.4208C26.569 14.8965 26.5227 14.403 26.4611 13.9096L29.7148 11.3651C30.0078 11.1338 30.0849 10.7175 29.8999 10.3782L26.8157 5.0426C26.677 4.79587 26.4148 4.65708 26.1372 4.65708C26.0447 4.65708 25.9522 4.6725 25.8751 4.70334L22.0353 6.24542C21.2334 5.62859 20.3698 5.1197 19.4292 4.73418L18.8432 0.647674C18.7969 0.277574 18.4731 0 18.0876 0H11.9192C11.5337 0 11.2099 0.277574 11.1636 0.647674L10.5776 4.73418C9.63697 5.1197 8.7734 5.64401 7.97152 6.24542L4.13174 4.70334C4.03922 4.6725 3.94669 4.65708 3.85417 4.65708C3.59202 4.65708 3.32986 4.79587 3.19107 5.0426L0.106915 10.3782C-0.0935556 10.7175 -0.00103058 11.1338 0.291965 11.3651L3.54575 13.9096C3.48407 14.403 3.43781 14.9119 3.43781 15.4208C3.43781 15.9297 3.48407 16.4386 3.54575 16.932L0.291965 19.4765C-0.00103058 19.7078 -0.0781348 20.1241 0.106915 20.4634L3.19107 25.799C3.32986 26.0457 3.59202 26.1845 3.86959 26.1845C3.96211 26.1845 4.05464 26.1691 4.13174 26.1383L7.97152 24.5962C8.7734 25.213 9.63697 25.7219 10.5776 26.1074L11.1636 30.1939C11.2099 30.564 11.5337 30.8416 11.9192 30.8416H18.0876C18.4731 30.8416 18.7969 30.564 18.8432 30.1939L19.4292 26.1074C20.3698 25.7219 21.2334 25.1976 22.0353 24.5962L25.8751 26.1383C25.9676 26.1691 26.0601 26.1845 26.1526 26.1845C26.4148 26.1845 26.677 26.0457 26.8157 25.799L29.8999 20.4634C30.0849 20.1241 30.0078 19.7078 29.7148 19.4765L26.4611 16.932ZM23.4077 14.2951C23.4694 14.7731 23.4848 15.097 23.4848 15.4208C23.4848 15.7446 23.454 16.0839 23.4077 16.5465L23.1918 18.2891L24.5643 19.3685L26.2297 20.6639L25.1503 22.5298L23.1918 21.7433L21.5881 21.0956L20.2002 22.1443C19.5371 22.6377 18.9049 23.0078 18.2726 23.27L16.638 23.9331L16.3913 25.6756L16.0829 27.7574H13.924L13.631 25.6756L13.3842 23.9331L11.7496 23.27C11.0865 22.9924 10.4697 22.6377 9.85286 22.1751L8.44957 21.0956L6.81496 21.7587L4.85652 22.5452L3.77706 20.6793L5.44251 19.3839L6.81496 18.3045L6.59907 16.5619C6.55281 16.0839 6.52197 15.7292 6.52197 15.4208C6.52197 15.1124 6.55281 14.7577 6.59907 14.2951L6.81496 12.5525L5.44251 11.4731L3.77706 10.1777L4.85652 8.31181L6.81496 9.09827L8.41873 9.74594L9.8066 8.69733C10.4697 8.20386 11.1019 7.83376 11.7342 7.57161L13.3688 6.90852L13.6155 5.16597L13.924 3.08416H16.0674L16.3604 5.16597L16.6072 6.90852L18.2418 7.57161C18.9049 7.84919 19.5217 8.20386 20.1385 8.66649L21.5418 9.74594L23.1764 9.08285L25.1349 8.29639L26.2143 10.1623L24.5643 11.4731L23.1918 12.5525L23.4077 14.2951ZM15.0034 9.25248C11.5954 9.25248 8.83509 12.0128 8.83509 15.4208C8.83509 18.8288 11.5954 21.5891 15.0034 21.5891C18.4114 21.5891 21.1717 18.8288 21.1717 15.4208C21.1717 12.0128 18.4114 9.25248 15.0034 9.25248ZM15.0034 18.505C13.3071 18.505 11.9192 17.1171 11.9192 15.4208C11.9192 13.7245 13.3071 12.3366 15.0034 12.3366C16.6997 12.3366 18.0876 13.7245 18.0876 15.4208C18.0876 17.1171 16.6997 18.505 15.0034 18.505Z" fill="#04004D"/></svg>
