<svg width="30" height="30" viewBox="0 0 30 30" fill="none" xmlns="http://www.w3.org/2000/svg">
<path d="M8.33333 23.3333C7.41667 23.3333 6.66667 22.5833 6.66667 21.6667V13.3333C6.66667 12.4167 7.41667 11.6667 8.33333 11.6667C9.25 11.6667 10 12.4167 10 13.3333V21.6667C10 22.5833 9.25 23.3333 8.33333 23.3333ZM15 23.3333C14.0833 23.3333 13.3333 22.5833 13.3333 21.6667V8.33333C13.3333 7.41667 14.0833 6.66667 15 6.66667C15.9167 6.66667 16.6667 7.41667 16.6667 8.33333V21.6667C16.6667 22.5833 15.9167 23.3333 15 23.3333ZM21.6667 23.3333C20.75 23.3333 20 22.5833 20 21.6667V18.3333C20 17.4167 20.75 16.6667 21.6667 16.6667C22.5833 16.6667 23.3333 17.4167 23.3333 18.3333V21.6667C23.3333 22.5833 22.5833 23.3333 21.6667 23.3333ZM25 26.6667H5C4.08333 26.6667 3.33333 25.9167 3.33333 25V5C3.33333 4.08333 4.08333 3.33333 5 3.33333H25C25.9167 3.33333 26.6667 4.08333 26.6667 5V25C26.6667 25.9167 25.9167 26.6667 25 26.6667ZM26.6667 0H3.33333C1.5 0 0 1.5 0 3.33333V26.6667C0 28.5 1.5 30 3.33333 30H26.6667C28.5 30 30 28.5 30 26.6667V3.33333C30 1.5 28.5 0 26.6667 0Z" fill="#04004D"/>
</svg>
